<svg xmlns="http://www.w3.org/2000/svg" xmlns:xlink="http://www.w3.org/1999/xlink" viewBox="1 2.5 256 258.5"><defs><linearGradient id="a" x1="1" y1="132" x2="257" y2="132" gradientUnits="userSpaceOnUse"><stop offset="0" stop-color="#05c"/><stop offset="0.08" stop-color="#0c5dcc"/><stop offset="0.35" stop-color="#3277cc"/><stop offset="0.61" stop-color="#4d89cc"/><stop offset="0.83" stop-color="#5d94cc"/><stop offset="1" stop-color="#6398cc"/></linearGradient><linearGradient id="b" x1="9.3" y1="132" x2="75.7" y2="132" gradientUnits="userSpaceOnUse"><stop offset="0" stop-color="#f01e0a"/><stop offset="0.23" stop-color="#f1200e"/><stop offset="0.48" stop-color="#f4271b"/><stop offset="0.72" stop-color="#f8332f"/><stop offset="0.97" stop-color="#fe444c"/><stop offset="1" stop-color="#ff4650"/></linearGradient><linearGradient id="c" x1="8.8" y1="132" x2="76.2" y2="132" gradientUnits="userSpaceOnUse"><stop offset="0" stop-color="#ff4650"/><stop offset="0.23" stop-color="#fe444c"/><stop offset="0.48" stop-color="#fb3d3f"/><stop offset="0.72" stop-color="#f7312b"/><stop offset="0.97" stop-color="#f1200e"/><stop offset="1" stop-color="#f01e0a"/></linearGradient><linearGradient id="d" x1="95.8" x2="162.2" xlink:href="#b"/><linearGradient id="e" x1="95.3" x2="162.7" xlink:href="#c"/><linearGradient id="f" x1="182.3" x2="248.7" xlink:href="#b"/><linearGradient id="g" x1="181.8" x2="249.2" xlink:href="#c"/><mask id="h" x="4.44" y="0" width="248.56" height="260.76" maskUnits="userSpaceOnUse"><g transform="translate(1 4)"><path d="M74.7,227L8.3,256V0L74.7,29V227ZM161.2,45.8L94.8,11V245l66.4-34.8V45.8Zm86.5,29L181.3,34.2V221.8l66.4-40.6V74.8Z" style="fill:#fff;stroke:#000;stroke-miterlimit:10"/></g></mask><linearGradient id="i" x1="178" y1="60" x2="253" y2="60" gradientUnits="userSpaceOnUse"><stop offset="0"/><stop offset="0.63" stop-color="#1d1d1d"/><stop offset="1" stop-color="#282828"/></linearGradient><linearGradient id="j" x1="89.78" y1="33.22" x2="167" y2="33.22" xlink:href="#i"/><linearGradient id="k" x1="4.44" y1="19.93" x2="84" y2="19.93" xlink:href="#i"/></defs><title>icon</title><polygon points="257 170 1 260 1 4 55 23 257 94 257 170" style="stroke:#fff;stroke-linejoin:round;stroke-width:2px;fill:url(#a)"/><polygon points="75.7 33 9.3 4 9.3 260 75.7 231 75.7 33" style="stroke-miterlimit:10;fill:url(#b);stroke:url(#c)"/><polygon points="162.2 49.8 95.8 15 95.8 249 162.2 214.2 162.2 49.8" style="stroke-miterlimit:10;fill:url(#d);stroke:url(#e)"/><polygon points="248.7 78.8 182.3 38.2 182.3 225.8 248.7 185.2 248.7 78.8" style="stroke-miterlimit:10;fill:url(#f);stroke:url(#g)"/><g style="mask:url(#h)"><polygon points="178 46 253 85 249 66 181 35 178 46" style="fill:url(#i)"/><polygon points="89.78 21.61 167 56 161.86 37.28 92.11 10.45 89.78 21.61" style="fill:url(#j)"/><polygon points="4.44 11.3 84 39.87 77.48 21.58 5.93 0 4.44 11.3" style="fill:url(#k)"/></g><circle cx="43" cy="130" r="15" style="fill:#fff;opacity:0"/><circle cx="128" cy="130" r="15" style="fill:#fff;opacity:0"/><circle cx="213" cy="130" r="15" style="fill:#fff;opacity:0"/></svg>