<svg xmlns="http://www.w3.org/2000/svg" viewBox="0 0 190 256"><title>lock</title><path d="M127,256H40a8,8,0,0,1-8-8V128a8,8,0,0,1,8-8h87V256Z" transform="translate(-32)" style="fill:#ffed58"/><path d="M127,256h87a8,8,0,0,0,8-8V128a8,8,0,0,0-8-8H127V256Z" transform="translate(-32)" style="fill:#fbd734"/><path d="M139.22,182a19,19,0,1,0-24.46,0,3,3,0,0,1,1,3.1L107,218.5v9h40v-9l-8.78-33.38A3,3,0,0,1,139.22,182Z" transform="translate(-32)" style="fill:#36464e"/><path d="M174.5,120V79.5a47.5,47.5,0,0,0-95,0V120h-16V79.5A63.5,63.5,0,0,1,127,16h0a63.5,63.5,0,0,1,63.5,63.5V120h-16Z" transform="translate(-32)" style="fill:#546e7a"/><path d="M206.5,120V79.5a79.5,79.5,0,0,0-159,0V120h16V79.5A63.5,63.5,0,0,1,127,16h0a63.5,63.5,0,0,1,63.5,63.5V120h16Z" transform="translate(-32)" style="fill:#788f9b"/></svg>